<svg width="29" height="29" viewBox="0 0 29 29" fill="none" xmlns="http://www.w3.org/2000/svg">
<path d="M9.33561 6.54088C9.60185 5.38811 8.96362 4.25641 7.91008 4.01319C6.85654 3.76995 5.78664 4.5073 5.5204 5.66008C5.25416 6.81285 5.8924 7.94455 6.94593 8.18777C7.99947 8.43101 9.06937 7.69366 9.33561 6.54088Z" fill="#4D4D4F" stroke="#4D4D4F" stroke-width="1.4"/>
<path d="M24.0728 6.5397C24.3389 5.38691 23.7006 4.2553 22.6471 4.01218C21.5936 3.76904 20.5238 4.50646 20.2576 5.65925C19.9915 6.81203 20.6299 7.94364 21.6834 8.18677C22.7369 8.4299 23.8067 7.69248 24.0728 6.5397Z" fill="#4D4D4F" stroke="#4D4D4F" stroke-width="1.4"/>
<path d="M4.29306 17.404C6.62394 20.7594 9.52894 22.5412 14.0484 22.5412C19.0613 22.5412 22.7011 20.2716 24.8181 17.3125C26.1627 18.0317 26.6092 18.8411 26.6092 19.7231C26.6092 22.2627 21.888 26.3749 14.7284 26.3749C8.54866 26.3749 4.28166 22.8522 3.0701 19.6033C2.6332 18.432 3.29406 17.422 4.29306 17.404Z" fill="#4D4D4F" stroke="#4D4D4F" stroke-width="1.4"/>
</svg>
